<svg width="88" height="63" viewBox="0 0 88 63" fill="none" xmlns="http://www.w3.org/2000/svg">
<path d="M0.000113979 61.2346C0.0663625 41.7555 0.11108 21.9606 0.134267 1.84997C0.134267 0.712293 0.805033 -0.0244391 1.69939 0.000619845C7.97974 0.207774 14.2618 0.526857 20.5454 0.95787C33.3695 3.65922 42.0099 12.9561 42 24.418C41.9801 35.1282 33.1906 43.3375 20.3516 44.0442C17.9998 44.1578 15.653 44.263 13.3111 44.3599C13.2183 49.7593 13.0974 55.1904 12.9484 60.6532C12.9136 61.7608 12.3124 62.5226 11.3783 62.5727C8.08243 62.7198 4.78657 62.8618 1.4907 62.9987C0.631131 63.0338 -0.00982329 62.3322 0.000113979 61.2346ZM20.5007 15.0059C18.1688 14.8288 15.8352 14.6701 13.4999 14.5298C13.48 20.026 13.4568 25.4872 13.4303 30.9133C15.7325 30.92 18.0379 30.9317 20.3467 30.9484C24.7489 31.0085 27.7599 27.6907 27.7798 23.4658C27.7996 18.2585 24.8234 15.4219 20.5007 15.0059Z" fill="#FDE047"/>
<path d="M88 54.1351C88 54.999 87.3944 55.6861 86.4054 55.7871C73.1334 57.1175 59.8632 57.8552 46.5946 58C45.6106 58 45 57.3281 45.005 56.3934C45.005 53.7831 45.0034 51.1728 45 48.5625C45.005 46.6275 45.4592 45.6979 46.5946 44.253C54.4165 33.8893 62.2384 23.7175 70.0602 13.7378C62.4873 13.3976 54.9178 13.1383 47.3516 12.9597C46.3625 12.9446 45.757 12.2423 45.762 11.2925C45.762 8.11301 45.762 4.93687 45.762 1.76409C45.757 0.728393 46.3676 -0.029435 47.3466 0.00087808C59.9894 0.529674 72.6322 1.49969 85.275 2.91094C86.259 3.02209 86.8646 3.79002 86.8646 4.73478C86.8646 7.36528 86.8646 9.984 86.8646 12.5909C86.8646 14.1369 86.5618 14.5865 85.1993 16.1426C77.401 25.442 69.6044 35.1052 61.8094 45.1321C70.0047 44.8289 78.205 44.4753 86.4104 44.0711C87.3944 44.0307 88 44.6976 87.995 45.6221C87.9983 48.4514 88 51.289 88 54.1351Z" fill="#FDE047"/>
</svg>
